<?xml version="1.0" encoding="UTF-8"?>
<svg version="1.1" xmlns="http://www.w3.org/2000/svg" width="48" height="48">
<path d="M0 0 C3.609375 -0.185625 7.21875 -0.37125 10.9375 -0.5625 C12.05632568 -0.64443604 13.17515137 -0.72637207 14.32788086 -0.81079102 C20.00889208 -0.95089551 23.75966487 -0.17791383 28.21875 3.46875 C34.0077009 10.09973012 32.97672855 17.76693181 32.5625 26.0625 C32.2840625 33.9515625 32.2840625 33.9515625 32 42 C21.44 42 10.88 42 0 42 C0 28.14 0 14.28 0 0 Z " fill="#4CB5AB" transform="translate(8,3)"/>
<path d="M0 0 C2.00349261 0.31165441 4.00326516 0.64763503 6 1 C8.76864953 0.63141012 8.76864953 0.63141012 11 0 C11.33 0.99 11.66 1.98 12 3 C11.01 3 10.02 3 9 3 C9.99 3.66 10.98 4.32 12 5 C11.67 6.65 11.34 8.3 11 10 C10.113125 9.814375 9.22625 9.62875 8.3125 9.4375 C5.08178602 8.82714779 5.08178602 8.82714779 2.25 9.5625 C1.5075 9.706875 0.765 9.85125 0 10 C-2 8 -2 8 -2.25 5 C-2 2 -2 2 0 0 Z " fill="#45AEA4" transform="translate(15,23)"/>
<path d="M0 0 C6.75 5.625 6.75 5.625 9 9 C6.03 9 3.06 9 0 9 C0 6.03 0 3.06 0 0 Z " fill="#DCF0EF" transform="translate(29,5)"/>
<path d="M0 0 C1.65 0.33 3.3 0.66 5 1 C5 1.66 5 2.32 5 3 C4.01 3 3.02 3 2 3 C2.99 3.66 3.98 4.32 5 5 C4.67 6.65 4.34 8.3 4 10 C2.35 9.67 0.7 9.34 -1 9 C-1 8.34 -1 7.68 -1 7 C0.32 7.33 1.64 7.66 3 8 C3 7.34 3 6.68 3 6 C1.68 5.34 0.36 4.68 -1 4 C-0.67 2.68 -0.34 1.36 0 0 Z " fill="#0C7569" transform="translate(22,23)"/>
<path d="M0 0 C0.66 0 1.32 0 2 0 C2 1.32 2 2.64 2 4 C2.66 4 3.32 4 4 4 C4 2.68 4 1.36 4 0 C4.99 0 5.98 0 7 0 C6.39009109 3.55780196 5.4216319 6.6828589 4 10 C3.34 10 2.68 10 2 10 C0.68373308 6.38026598 0 3.90432869 0 0 Z " fill="#0D766A" transform="translate(29,23)"/>
<path d="M0 0 C2.625 0.375 2.625 0.375 5 1 C5 1.66 5 2.32 5 3 C3.35 2.67 1.7 2.34 0 2 C0 3.98 0 5.96 0 8 C1.65 7.67 3.3 7.34 5 7 C4.67 7.99 4.34 8.98 4 10 C-0.875 9.125 -0.875 9.125 -2 8 C-2.1875 5.0625 -2.1875 5.0625 -2 2 C-1.34 1.34 -0.68 0.68 0 0 Z " fill="#0A7366" transform="translate(15,23)"/>
</svg>
